<svg width="18" height="18" viewBox="0 0 18 18" fill="none" xmlns="http://www.w3.org/2000/svg">
<g clip-path="url(#clip0_1_357)">
<path d="M3.54076 9.66081C3.08101 10.5646 3.60301 10.9966 4.79401 11.7346C5.80651 12.3601 7.20526 12.5888 8.10376 12.6803C7.73551 13.0343 9.42301 11.4113 4.56301 16.0861C3.53251 17.0738 5.19151 18.6586 6.22126 17.6918L9.00901 15.0031C10.0763 16.0298 11.0993 17.0138 11.7968 17.6956C12.8273 18.666 14.4855 17.0948 13.4663 16.0898C13.3898 16.0171 9.68851 12.4666 9.91426 12.6841C10.824 12.5926 12.2018 12.3503 13.2023 11.7383L13.2015 11.7376C14.3925 10.9958 14.9145 10.5646 14.4615 9.66081C14.1878 9.14781 13.4498 8.71882 12.4673 9.46056C12.4673 9.46056 11.1405 10.4768 9.00076 10.4768C6.86026 10.4768 5.53426 9.46056 5.53426 9.46056C4.55251 8.71507 3.81151 9.14781 3.54076 9.66081Z" fill="#E08641"/>
<path d="M9.001 9.1065C11.6095 9.1065 13.7395 7.068 13.7395 4.5585C13.7395 2.0385 11.6095 0 9.001 0C6.39175 0 4.26175 2.0385 4.26175 4.5585C4.26175 7.068 6.39175 9.1065 9.001 9.1065ZM9.001 2.30925C10.2827 2.30925 11.3282 3.315 11.3282 4.5585C11.3282 5.7915 10.2827 6.79725 9.001 6.79725C7.71925 6.79725 6.67375 5.7915 6.67375 4.5585C6.673 3.31425 7.7185 2.30925 9.001 2.30925Z" fill="#E08641"/>
</g>
<defs>
<clipPath id="clip0_1_357">
<rect width="18" height="18" fill="white"/>
</clipPath>
</defs>
</svg>
